# xmcd CD database file
#
# Track frame offsets:
#	150
#	16392
#	33280
#	48230
#	69215
#
# Disc length: 1289 seconds
#
# Revision: 1
# Processed by: cddbd v1.4PL0 Copyright (c) Steve Scherf et al.
# Submitted via: CDex 1.51
#
DISCID=32050705
DTITLE=Alabama - In The Mood: The Love Songs-Sampler
DYEAR=2003
DGENRE=Country
TTITLE0=Feels So Right
TTITLE1=Take Me Down
TTITLE2=Love In The First Degree
TTITLE3=God Must Have Spent A Little More Time On You
TTITLE4=The Living Years
EXTD=YEAR: 2003
EXTT0=
EXTT1=
EXTT2=
EXTT3=
EXTT4=
PLAYORDER=
